<svg height="512" viewBox="0 0 512 512" width="512" xmlns="http://www.w3.org/2000/svg"><g id="BULINE"><circle cx="256" cy="256" fill="#7eccc8" r="256"/></g><g id="Icons"><path d="m475.6 387.64a256.07 256.07 0 0 1 -439.2 0z" fill="#375e87"/><path d="m427 84.15h-161.17l-14.41 24.85a110.42 110.42 0 0 0 -14.9 55.39v199a29.38 29.38 0 0 0 29.39 29.38h161a29.38 29.38 0 0 0 29.38-29.38v-199a110.42 110.42 0 0 0 -14.89-55.39z" fill="#cf5151"/><path d="m446.66 119.32h-102.3a49.86 49.86 0 0 0 -43.12 24.85 110.53 110.53 0 0 0 -14.9 55.42v193.15h-20.44a29.39 29.39 0 0 1 -29.38-29.4v-198.91a110.54 110.54 0 0 1 14.9-55.43l14.41-24.85h161.17l14.4 24.85a104.32 104.32 0 0 1 5.26 10.32z" fill="#b54949"/><rect fill="#5289be" height="38.83" rx="14.65" width="219.78" x="236.52" y="45.33"/><path d="m456.3 64.74v4.76a14.65 14.65 0 0 1 -14.65 14.65h-190.48a14.66 14.66 0 0 1 -14.65-14.65v-9.5a14.66 14.66 0 0 1 14.65-14.65h3.67v4.76a14.65 14.65 0 0 0 14.65 14.65z" fill="#4b7c9f"/><path d="m236.52 189.65h219.78v124.54h-219.78z" fill="#fff"/><path d="m286.79 189.65c-.3 3.29-.45 6.62-.45 9.95v114.59h-49.82v-124.54z" fill="#ccc"/><circle cx="345.03" cy="254.54" fill="#cf5151" r="38.43"/><path d="m325.23 263.94a38.32 38.32 0 0 0 12.47 28.34 38.44 38.44 0 1 1 33.3-66.07 38.45 38.45 0 0 0 -45.75 37.73z" fill="#b54949"/><ellipse cx="354.54" cy="212.08" fill="#7b9743" rx="19.26" ry="11.35" transform="matrix(.701 -.713 .713 .701 -45.28 316.11)"/><path d="m269.92 245.73a39.17 39.17 0 0 0 -13.14 2.27 46 46 0 0 0 -63.59-14 55 55 0 0 0 -98.28 11.83c-1-.06-2-.1-3-.1a46 46 0 1 0 38.87 70.59 55 55 0 0 0 53.54-12.32 46 46 0 0 0 57.46 8.07 39.16 39.16 0 1 0 28.14-66.38z" fill="#87ab4a"/><path d="m177.5 199c12.42 24.2 9.13 50.67-7.33 59.11s-39.87-4.33-52.28-28.53c-8.8-17.15-9.71-35.42-3.64-47.62l-65.8-128.34a15 15 0 1 1 26.69-13.69l65.8 128.29c13.46 2.2 27.77 13.6 36.56 30.78z" fill="#cf5151"/><path d="m66.91 44.15a14.92 14.92 0 0 1 -.82-11.75 15 15 0 0 0 -17.64 21.22l65.8 128.3c-6.07 12.2-5.16 30.47 3.64 47.62 12.41 24.2 35.82 37 52.28 28.53a24 24 0 0 0 8.14-6.88c-14.88.42-32-11.65-42-31.12-8.79-17.15-9.7-35.42-3.63-47.62z" fill="#b54949"/><path d="m255.59 260a32.94 32.94 0 0 0 -11.1 1.92 38.83 38.83 0 0 0 -53.73-11.83 46.47 46.47 0 0 0 -83 10c-.84-.05-1.68-.09-2.53-.09a38.87 38.87 0 1 0 32.77 59.64 46.53 46.53 0 0 0 45.23-10.38 38.86 38.86 0 0 0 48.55 6.82 33.09 33.09 0 1 0 23.81-56.08z" fill="#7b9743"/><path d="m309.57 307.69a137.57 137.57 0 1 1 -275.14 0z" fill="#c5fff0"/><path d="m306.51 336.68h-139.71c-42.27 0-66.61 48.21-41.35 82.11a138.45 138.45 0 0 0 23.48 24.53 137.59 137.59 0 0 1 -114.5-135.63h275.14a137.75 137.75 0 0 1 -3.06 28.99z" fill="#8be3df"/><rect fill="#d6ae2a" height="30" rx="15" width="301.84" x="21.08" y="277.69"/><path d="m114.19 303.3a14.93 14.93 0 0 0 10.61 4.39h-88.72a15 15 0 1 1 0-30h88.72a15 15 0 0 0 -10.61 25.61z" fill="#be9725"/><path d="m452.75 305.65c.39-1.35.73-2.72 1-4.12a52.85 52.85 0 0 0 -103.12-23.16c-.16.69-.31 1.37-.45 2.05a147.36 147.36 0 0 1 -23.53 55.82 67.15 67.15 0 1 0 121.42 28.81c-2.92-19.9-.95-40.05 4.68-59.4z" fill="#755b41"/><path d="m438 312.27q.48-1.66.84-3.39c4.67-22.18-7.45-44.17-27.51-49.91-22-6.29-44.89 8.56-50.69 32.46-.14.56-.26 1.13-.38 1.69a130.45 130.45 0 0 1 -18.76 46.12 59.67 59.67 0 0 0 -8.68 21.08c-5.69 28 9.66 55.68 35 63 27.94 8 57.11-10.83 64.48-41.23a59.25 59.25 0 0 0 1.29-21 123.74 123.74 0 0 1 4.41-48.82z" fill="#9cc753"/><path d="m381.34 425.14a47.27 47.27 0 0 1 -13.54-1.85c-25.32-7.28-40.67-34.93-35-63a59.61 59.61 0 0 1 8.69-21.08 130.82 130.82 0 0 0 18.76-46.12c.11-.56.23-1.12.37-1.69 5.8-23.91 28.73-38.75 50.7-32.47a36.79 36.79 0 0 1 9.26 4.12c-17.27 1.39-32.84 14.71-37.47 33.8-.14.57-.26 1.13-.38 1.69a130.66 130.66 0 0 1 -18.73 46.15 59.86 59.86 0 0 0 -8.68 21.08c-5 24.56 6.16 48.83 26.02 59.37z" fill="#87ab4a"/><circle cx="389.8" cy="341.19" fill="#efc32e" r="32.33"/><path d="m391.14 373.49a31.94 31.94 0 0 1 -9-.88 32.33 32.33 0 1 1 15.24-62.84 31.81 31.81 0 0 1 8.37 3.32 32.33 32.33 0 0 0 -14.65 60.4z" fill="#d6ae2a"/><path d="m99.79 404.9c-3.56-3.42-7-6.84-10.16-10.2-10.42-10.91 1-28.55 15.21-23.39q5.49 2 11.07 3.79c90.8 29.06 195.38 15.78 254.32 3.92 14.15-2.86 23.17 14.69 12.6 24.54-122.44 114.12-225.13 56.98-283.04 1.34z" fill="#efc32e"/><path d="m87.82 392.42c-7.06-10.9 3.79-25.92 17-21.11 93.23 33.94 204 20.06 265.39 7.7 13.53-2.72 22.38 13.2 13.88 23.21a14 14 0 0 0 -15-6.48c-61.32 12.35-172.09 26.26-265.37-7.74a13.84 13.84 0 0 0 -15.9 4.42z" fill="#deae2a"/><path d="m99.79 404.9c-3.56-3.42-7-6.84-10.16-10.2-10.42-10.91 1-28.55 15.21-23.39q5.49 2 11.07 3.79v.21a40.2 40.2 0 0 1 -16.12 29.59z" fill="#634c35"/></g></svg>